<svg width="19" height="17" viewBox="0 0 19 17" fill="none" xmlns="http://www.w3.org/2000/svg">
<path d="M9.50496 0.562288C9.65464 0.101633 10.3063 0.101633 10.456 0.562288L12.1134 5.6631C12.1803 5.86911 12.3723 6.00859 12.5889 6.00859H17.9522C18.4366 6.00859 18.638 6.6284 18.2461 6.9131L13.9071 10.0655C13.7319 10.1929 13.6585 10.4185 13.7255 10.6246L15.3828 15.7254C15.5325 16.186 15.0053 16.5691 14.6134 16.2844L10.2744 13.1319C10.0991 13.0046 9.86184 13.0046 9.6866 13.1319L5.34759 16.2844C4.95573 16.5691 4.42849 16.186 4.57817 15.7254L6.23552 10.6246C6.30246 10.4185 6.22913 10.1929 6.05388 10.0655L1.71488 6.9131C1.32302 6.6284 1.52441 6.00859 2.00877 6.00859H7.37208C7.58869 6.00859 7.78067 5.86911 7.84761 5.6631L9.50496 0.562288Z" fill="#E5C45B"/>
</svg>
